# xmcd
# Track frame offsets:
# 150
# 17183
# 35356
# 49223
# 63852
# 77671
# 89625
# 102410
# 119322
# 133587
# 150268
# 164862
# 179284
# 196585
# 212712
#
# Disc length: 3061 seconds
# Revision: 0
# Processed by: cddbd v1.5.1PL0 Copyright (c) Steve Scherf et al.
# Submitted via: VisiTrax 2.9.10.228 - For more info visit www.synapsa.com
#
DISCID=c70bf30f
DTITLE=Lawrence, Tracy - CB90039
DYEAR=1900
DGENRE=Karaoke
TTITLE0=Sticks And Stones
TTITLE1=Today's Lonely Fool
TTITLE2=Runnin' Behind
TTITLE3=Alibis
TTITLE4=Can't Break It To My Heart
TTITLE5=If The Good Die Young
TTITLE6=Renegades, Rebels And Rogues
TTITLE7=I See It Now
TTITLE8=As Any Fool Can See
TTITLE9=Texas Tornado
TTITLE10=If The World Had A Front Porch
TTITLE11=Time Marches On
TTITLE12=Stars Over Texas
TTITLE13=Better Man Better Off
TTITLE14=How A Cowgirl Says Goodbye
EXTD=
EXTT0=
EXTT1=
EXTT2=
EXTT3=
EXTT4=
EXTT5=
EXTT6=
EXTT7=
EXTT8=
EXTT9=
EXTT10=
EXTT11=
EXTT12=
EXTT13=
EXTT14=
PLAYORDER=
